<svg width="34" height="39" viewBox="0 0 34 39" fill="none" xmlns="http://www.w3.org/2000/svg">
<path d="M18.5722 17.9972L18.6753 9.71308C19.2651 9.89942 19.6047 10.3539 20.0876 10.6583L19.9837 18.9992C20.2518 19.2112 20.4956 19.4044 20.7864 19.6345C20.6466 19.7442 20.5611 19.8458 20.4529 19.8902C20.0403 20.0596 19.9627 20.3806 19.9597 20.7931C19.9415 23.2645 19.9044 25.7357 19.8736 28.2071L19.8635 29.018C19.4134 29.324 18.9872 29.6141 18.581 29.891C18.4993 29.8255 18.4771 29.8118 18.4609 29.7928C18.4442 29.7738 18.4288 29.7508 18.4211 29.7265C18.4129 29.7023 18.4125 29.6741 18.4128 29.6472C18.4472 26.856 18.4819 24.0639 18.5178 21.1838C17.8893 21.6068 17.3214 21.9891 16.7497 22.3738L16.6403 31.1653C16.2009 31.4767 15.7761 31.779 15.2639 32.1418C15.2351 31.8796 15.194 31.6871 15.196 31.4951C15.2214 29.0771 15.2531 26.6591 15.2832 24.242L15.2945 23.3396C14.6765 23.7571 14.1406 24.1192 13.5695 24.5051C13.5554 24.6992 13.5294 24.9077 13.5265 25.1165C13.4926 27.6416 13.4524 30.1669 13.439 32.6912C13.4365 33.1692 13.3358 33.5063 12.8665 33.7113C12.5693 33.8405 12.3156 34.0737 11.9554 34.319L12.065 25.5151C11.3821 25.9589 10.7966 26.3391 10.1863 26.7357L10.0756 35.6316C9.55497 35.7661 9.25927 36.2835 8.7389 36.3683C8.69085 36.314 8.67132 36.295 8.65619 36.2733C8.64171 36.253 8.62155 36.2285 8.62183 36.2057C8.65465 33.4413 8.6892 30.6769 8.72479 27.8186C8.11493 28.0863 7.65196 28.4538 7.17704 28.7903C7.05236 28.8774 6.98103 29.0954 6.95636 29.2642C6.91791 29.5269 6.94026 29.7998 6.93692 30.0683C6.90749 32.4326 6.86892 34.7955 6.85687 37.16C6.85445 37.6111 6.74012 37.9225 6.31646 38.1187C6.03887 38.2468 5.79192 38.4425 5.46423 38.6506C5.3143 37.8444 5.42224 37.1287 5.41263 36.4182C5.403 35.7198 5.42589 35.0219 5.4346 34.3224L5.48849 29.9939C4.72684 30.2651 4.23982 30.8055 3.63772 31.1538C3.02491 31.5088 2.43717 31.9083 1.84763 32.3025C1.26546 32.6913 0.694989 33.0992 0.053162 33.5451L0.405638 5.23087C1.3566 5.87557 2.24013 6.45603 3.10379 7.06513C3.96191 7.6704 4.80004 8.30442 5.74665 8.99915L5.85056 0.652444C6.37542 0.975472 6.81345 1.24479 7.28205 1.53315L7.17677 9.99035C7.75005 10.3908 8.28714 10.7661 8.87779 11.1788C8.89544 10.9552 8.92201 10.7606 8.9247 10.5656C8.95545 8.3093 8.97995 6.05292 9.01441 3.79665C9.01825 3.54157 8.92287 3.24832 9.26514 3.01114C9.63909 3.26744 10.0383 3.54125 10.4382 3.81545L10.3337 12.2108C10.9618 12.6489 11.5556 13.0634 12.2403 13.5409L12.3441 5.19807C12.866 5.54791 13.2891 5.83197 13.7371 6.13228L13.6326 14.532C14.179 14.9125 14.7104 15.2825 15.3073 15.698C15.4716 14.9737 15.3857 14.3125 15.411 13.6611C15.437 12.9903 15.4317 12.3181 15.44 11.6467L15.4907 7.57493C15.9279 7.65852 16.2246 7.86229 16.5136 8.06892C16.8118 8.2821 16.9348 8.56305 16.9267 8.9592C16.8773 11.3494 16.8677 13.7404 16.819 16.1308C16.8091 16.6107 16.9142 16.9331 17.3703 17.1614C17.764 17.3585 18.1039 17.665 18.5722 17.9972Z" fill="#994ECC"/>
<path d="M22.031 12.0004C22.437 12.2968 22.8007 12.5549 23.1556 12.8248C23.335 12.961 23.4277 13.1473 23.3935 13.3854C23.3821 13.4643 23.3899 13.5462 23.3889 13.6268C23.3353 17.922 23.2819 22.2173 23.2278 26.5126C23.2267 26.5918 23.2177 26.6723 23.2085 26.8078C22.8042 27.0794 22.3742 27.3681 21.8758 27.703C21.8319 27.54 21.7751 27.4278 21.7764 27.3177C21.8353 22.2973 21.8994 17.2774 21.9647 12.2574C21.9653 12.2068 21.9897 12.1564 22.031 12.0004Z" fill="#994ECC"/>
<path d="M25.1683 14.2219C25.6921 14.5836 26.0975 14.8634 26.5305 15.1623C26.5381 15.3672 26.5546 15.5767 26.5521 15.7862C26.5205 18.4916 26.4732 21.1972 26.4634 23.9028C26.4615 24.4428 26.3433 24.8138 25.8253 25.0488C25.5749 25.1624 25.3755 25.3933 25.0287 25.4331L25.1683 14.2219Z" fill="#994ECC"/>
<path d="M28.2927 16.5778C28.5138 16.6301 28.6585 16.625 28.7517 16.6925C29.4029 17.164 29.7226 17.8163 29.7108 18.6495L29.6635 22.4489C29.257 22.7418 28.8548 23.0314 28.3904 23.3659C28.3307 23.2053 28.2208 23.0485 28.2218 22.8922C28.2358 20.827 28.2655 18.7619 28.2927 16.5778Z" fill="#994ECC"/>
<path d="M31.4548 18.8259C32.2968 19.0753 32.8367 19.6077 33.5331 19.9926C32.8354 20.4301 32.2509 20.9151 31.4355 21.2008C31.4231 20.4179 31.4472 19.7061 31.4548 18.8259Z" fill="#994ECC"/>
</svg>
